<?xml version="1.0" encoding="UTF-8"?>
<svg id="Capa_1" data-name="Capa 1" xmlns="http://www.w3.org/2000/svg" viewBox="0 0 184.86 191.28">
  <defs>
    <style>
      .cls-1 {
        fill: none;
      }

      .cls-2 {
        fill: #fff;
      }
    </style>
  </defs>
  <circle class="cls-1" cx="92.43" cy="95.64" r="196"/>
  <path class="cls-2" d="M159.22,0h-82.23c-7.97,0-40.64,10.08-40.92,10.46h92.08c14.16,0,25.64,10.17,25.64,22.72v106.27c0,12.55-10.62,21.86-24.78,21.86H40.1L0,191.28h24.08l55.44-18.82h79.7c14.16,0,25.64-12.71,25.64-26.87V25.64c0-14.16-11.48-25.64-25.64-25.64Z"/>
  <g>
    <path class="cls-2" d="M64.41,118.08v-45.39h23.82v7.55h-14.91v10.56h12.72v7.55h-12.72v19.73h-8.91Z"/>
    <path class="cls-2" d="M120.42,101.17c-.8-15.68-15.88-14.7-17.79-13.75l.39-7.28h15.42v-8.01h-22.62l-2.17,24.11s4.59-2.24,7.86-2.24c5.15,0,9.33,3.78,9.33,8.45s-4.18,8.45-9.33,8.45c-3.14,0-6.45-1.34-8.13-3.5l-2.2,7.85s5.28,3.9,13.95,3.9c5.15,0,15.98-4.33,15.28-17.98Z"/>
  </g>
</svg>